<svg xmlns="http://www.w3.org/2000/svg" xmlns:xlink="http://www.w3.org/1999/xlink" width="200" height="160" viewBox="0 0 200 160">
  <defs>
    <rect id="pages-student-a" width="200" height="160" rx="2"/>
    <polygon id="pages-student-c" points="0 0 96 0 96 96 0 96"/>
  </defs>
  <g fill="none" fill-rule="evenodd">
    <mask id="pages-student-b" fill="#fff">
      <use xlink:href="#pages-student-a"/>
    </mask>
    <use fill="#39444D" fill-rule="nonzero" xlink:href="#pages-student-a"/>
    <g mask="url(#pages-student-b)">
      <g transform="translate(52 32)">
        <mask id="pages-student-d" fill="#fff">
          <use xlink:href="#pages-student-c"/>
        </mask>
        <path stroke="#FFF" stroke-linecap="round" stroke-linejoin="round" d="M18.3216912,88 L77.9090456,88 C69.0652235,84.5602784 61.1726198,82.6829722 54.2312347,82.3680815 C53.0620688,82.3150431 50.8931426,82.7861305 47.7244562,83.7813435 C44.9636186,82.7899046 43.0182806,82.3188172 41.8884421,82.3680815 C34.8858615,82.6734142 27.0302779,84.5507204 18.3216912,88 Z M42.70781,76.0285463 L42.7078929,82.2093151 L47.6873085,83.7786599 L53.525046,82.2093151 L53.5251288,76.0285463 C51.9975511,76.8066694 50.051611,77.4846039 47.6873085,78.0623497 C46.0808951,77.6057503 44.4210623,76.9278159 42.70781,76.0285463 Z M69.0510294,52.407164 L70.6666581,52.4894985 C71.688832,52.5415898 72.500473,53.3684443 72.5335751,54.3914093 C72.6231755,57.1598339 71.9891711,59.1252004 70.6315789,60.2875082 C68.5263158,62.2151061 66.9473684,62.03987 66.0701754,61.5141614 C66.245614,60.6379806 66.9473684,59.060855 67.6491228,55.5561315 C68.4865478,54.5388034 68.9188357,53.5214753 68.9459866,52.5041472 L68.9462061,52.504153 C68.9476763,52.4490654 68.9935255,52.4056 69.0486131,52.4070702 C69.0494188,52.4070917 69.0502243,52.4071229 69.0510294,52.407164 Z M27.1005214,52.4117006 L25.5341085,52.4894985 C24.4846003,52.5416236 23.6515283,53.3918433 23.6207942,54.4421955 C23.5405555,57.1838828 24.1750816,59.1323205 25.5243574,60.2875082 C27.6296205,62.2151061 29.2280702,62.03987 30.1052632,61.5141614 C30.1052632,60.8132167 29.2280702,58.8856188 28.3508772,55.2056592 C27.7226443,54.1400701 27.3755183,53.2688725 27.3094991,52.5920661 L27.3095276,52.5920634 C27.2991617,52.4857962 27.2071615,52.4064042 27.1005214,52.4117006 Z M28.3508772,55.2056592 C30.1052632,62.2151061 33.6140351,73.7806936 47.6491228,77.9863618 C58.4093567,75.8835277 65.0760234,68.4067843 67.6491228,55.5561315 C65.5438596,54.3878904 63.7497259,50.5948715 62.2667215,44.1770748 C52.9122807,55.2056592 44.8421053,54.1542421 33.946409,44.1770748 C32.5614035,52.0514081 30.1052632,54.5047145 28.3508772,55.2056592 Z M26.9473684,46.4438505 C27.2360968,53.3234533 27.2360968,53.1169432 28.3508772,55.2056592 C32.0505071,53.5088288 32.9487057,48.3584 33.9583358,44.2523716 C46.1514419,55.5003435 53.9376886,53.7260772 62.1876617,44.2523716 C63.4532591,48.3584 64.5145288,53.7260772 67.665055,55.5003435 C69.0526316,53.7260772 69.0526316,53.30818 69.0526316,46.4438505 C59.2128221,40.8253407 41.9597039,37.7015505 26.9473684,46.4438505 Z M26.9473684,28.2192884 C40.9576153,15.0115464 58.7449268,20.36994 69.0526316,28.2689159 C69.0526316,34.7954366 69.0526316,44.0121063 69.0526316,46.4438505 C56.722759,39.6131479 40.0297081,38.7883057 26.9473684,46.4438505 C26.9473684,40.9974965 26.9473684,28.2192884 26.9473684,28.2192884 Z M8.24450963,29.182092 L47.6491228,14.9013392 L87.7529432,29.182726 C87.8049711,29.2012537 87.8321285,29.2584503 87.8136008,29.3104783 C87.804041,29.3373232 87.7834826,29.3588145 87.7570882,29.3695554 L69.0526316,36.9810971 C69.0526316,32.5417807 69.0526316,29.6211778 69.0526316,28.2192884 C59.2280702,20.8593691 41.6842105,14.5508669 26.9473684,28.2192884 C26.9473684,29.1538814 26.9473684,32.0744843 26.9473684,36.9810971 L8.24089001,29.3687326 C8.18973494,29.3479157 8.16514101,29.2895709 8.18595791,29.2384158 C8.19662549,29.2122015 8.21790144,29.1917351 8.24450963,29.182092 Z M8.06094141,26.7915423 L47.6108057,10.0109839 C47.6353306,10.0005782 47.6629938,10.0003889 47.6876589,10.0104577 L87.9377945,26.4415329 C87.9754135,26.4568899 88,26.4934829 88,26.5341157 L88,29.1289429 C88,29.1841714 87.9552285,29.2289429 87.9,29.2289429 C87.8885685,29.2289429 87.8772217,29.2269828 87.8664526,29.2231479 L47.6829668,14.9133914 C47.6610886,14.9056004 47.6371809,14.9056671 47.6153467,14.9135802 L8.13407272,29.2221158 C8.082149,29.2409336 8.02480162,29.214096 8.00598378,29.1621723 C8.00202489,29.1512486 8,29.1397185 8,29.1280995 L8,26.883599 C8,26.8434644 8.02399492,26.8072183 8.06094141,26.7915423 Z" mask="url(#pages-student-d)"/>
      </g>
    </g>
  </g>
</svg>
