<svg xmlns="http://www.w3.org/2000/svg" xmlns:xlink="http://www.w3.org/1999/xlink" width="200" height="160" viewBox="0 0 200 160">
  <defs>
    <rect id="pages-instructor-a" width="200" height="160" rx="2"/>
    <rect id="pages-instructor-c" width="96" height="96"/>
  </defs>
  <g fill="none" fill-rule="evenodd">
    <mask id="pages-instructor-b" fill="#fff">
      <use xlink:href="#pages-instructor-a"/>
    </mask>
    <use fill="#39444D" fill-rule="nonzero" xlink:href="#pages-instructor-a"/>
    <g mask="url(#pages-instructor-b)">
      <g transform="translate(52 32)">
        <mask id="pages-instructor-d" fill="#fff">
          <use xlink:href="#pages-instructor-c"/>
        </mask>
        <path stroke="#FFF" stroke-linecap="round" stroke-linejoin="round" d="M47.0697674,50.7042254 C52.5498022,50.7042254 56.9922481,46.2649079 56.9922481,40.7887324 C56.9922481,35.3125568 52.5498022,30.8732394 47.0697674,30.8732394 C41.5897327,30.8732394 37.1472868,35.3125568 37.1472868,40.7887324 C37.1472868,46.2649079 41.5897327,50.7042254 47.0697674,50.7042254 Z M21.6434109,81.0704225 C20.1773534,80.6042782 20.7131783,77.971831 31.5658915,68.6760563 C39.3178295,59.6901408 36.5271318,51.943662 52.9612403,51.943662 C56.6821705,49.4647887 57.9705456,47.6091482 59.4728682,44.1971831 C61.6855599,39.1718798 61.9159688,33.709379 61.3333333,29.6338028 C61.0232558,27.4647887 62.5736434,26.5352113 64.4341085,27.7746479 C67.802044,30.9938828 67.1432939,43.1206564 64.124031,49.1549296 C63.1492665,51.1030858 61.3471449,53.6024249 58.7176664,56.6529469 L58.7176684,56.6529486 C58.4047109,57.0160181 58.2325581,57.479411 58.2325581,57.9587458 L58.2325581,82 L39.3178295,82 L38.4041154,71.0400425 C38.3995138,70.9848628 38.3510516,70.9438611 38.2958719,70.9484626 C38.2749189,70.9502099 38.2550456,70.9585004 38.2390626,70.9721614 C29.6417399,78.3205125 24.109856,81.6865996 21.6434109,81.0704225 Z M62.2635659,27.1549296 L59.4728682,23.4366197 M8,65.5774648 L29.0852713,65.5774648 M60.0930233,65.5774648 L88,65.5774648 M29.0852713,62.4788732 L8.62015504,62.4788732 L8.62015504,16 L87.379845,16 L87.379845,62.4788732 L60.0930233,62.4788732" mask="url(#pages-instructor-d)"/>
      </g>
    </g>
  </g>
</svg>
