<svg xmlns="http://www.w3.org/2000/svg" xmlns:xlink="http://www.w3.org/1999/xlink" width="40" height="40" viewBox="0 0 40 40">
  <defs>
    <rect id="white-a" width="40" height="40" rx="1"/>
  </defs>
  <g fill="none" fill-rule="evenodd">
    <mask id="white-b" fill="#fff">
      <use xlink:href="#white-a"/>
    </mask>
    <path stroke="#FFF" stroke-linecap="round" stroke-linejoin="round" d="M8,7.96918214 L32,7.96918214 C33.6568542,7.96918214 35,9.31232789 35,10.9691821 L35,13.159591 L22.6614027,13.159591 L5,13.159591 L5,10.9691821 C5,9.31232789 6.34314575,7.96918214 8,7.96918214 Z M5,13.2282125 L5,29.5 C5,31.1568542 6.34314575,32.5 8,32.5 L31.7455569,32.5 C33.3842248,32.5 34.7197174,31.1851118 34.7451943,29.546642 L35,13.159591" mask="url(#white-b)"/>
    <path stroke="#FFF" stroke-linecap="round" stroke-linejoin="round" stroke-width=".5" d="M7.92050381,11.2402524 C7.45814732,11.2402524 7.08333333,10.8693384 7.08333333,10.4117929 C7.08333333,9.9542473 7.45814732,9.58333333 7.92050381,9.58333333 C8.38286029,9.58333333 8.75767428,9.9542473 8.75767428,10.4117929 C8.75767428,10.8693384 8.38286029,11.2402524 7.92050381,11.2402524 Z M10.4320152,11.2402524 C9.96965875,11.2402524 9.59484476,10.8693384 9.59484476,10.4117929 C9.59484476,9.9542473 9.96965875,9.58333333 10.4320152,9.58333333 C10.8943717,9.58333333 11.2691857,9.9542473 11.2691857,10.4117929 C11.2691857,10.8693384 10.8943717,11.2402524 10.4320152,11.2402524 Z M12.9435267,11.2402524 C12.4811702,11.2402524 12.1063562,10.8693384 12.1063562,10.4117929 C12.1063562,9.9542473 12.4811702,9.58333333 12.9435267,9.58333333 C13.4058831,9.58333333 13.7806971,9.9542473 13.7806971,10.4117929 C13.7806971,10.8693384 13.4058831,11.2402524 12.9435267,11.2402524 Z" mask="url(#white-b)"/>
    <path stroke="#FFF" stroke-linecap="round" stroke-linejoin="round" d="M15.711263,17.7738444 L11.5820312,22.1415202 L15.711263,26.7020671 M22.2216797,17.175293 L17.8670247,27.8190104 M24.3631999,17.8641764 L28.4615072,22.3079427 L24.3631999,26.5458171" mask="url(#white-b)"/>
  </g>
</svg>
