<svg xmlns="http://www.w3.org/2000/svg" xmlns:xlink="http://www.w3.org/1999/xlink" width="48" height="48" viewBox="0 0 48 48">
  <defs>
    <rect id="gift-a" width="48" height="48" rx="1"/>
  </defs>
  <g fill="none" fill-rule="evenodd">
    <mask id="gift-b" fill="#fff">
      <use xlink:href="#gift-a"/>
    </mask>
    <path stroke="#383B3D" stroke-linecap="round" stroke-linejoin="round" d="M6,13 L28.0239583,13 L42,13 L42,22.0320164 L28,22.0320164 L28.0239583,13 L6,13 Z M20,13.0712573 L20,21.7801115 L6,21.7801115 L6,13.0712573 M7.99296875,21.8074434 L7.99296875,43 L40.0528646,43 L40.0528646,22.0395102 M20,21.815611 L20,42.3420907 M28,21.9821593 L28,42.3420907 M15.0986979,11.0846354 C11.3400848,9.4010183 13.0434896,6.61041667 13.0434896,6.61041667 C13.0434896,6.61041667 13.8182292,5 16.225,5 C16.7084152,5 19.5364583,5.47604167 21.95625,8.28868102 C22.6432179,9.08717659 23.3244679,10.1636926 24,11.5182292 C19.0531729,11.6714469 16.0860722,11.5269156 15.0986979,11.0846354 Z M32.5597303,11.0846354 C36.3183434,9.4010183 34.6149386,6.61041667 34.6149386,6.61041667 C34.6149386,6.61041667 33.840199,5 31.4334282,5 C30.950013,5 28.1219699,5.47604167 25.7021782,8.28868102 C25.0152103,9.08717659 24.3339603,10.1636926 23.6584282,11.5182292 C28.6052553,11.6714469 31.572356,11.5269156 32.5597303,11.0846354 Z" mask="url(#gift-b)"/>
  </g>
</svg>
