<svg xmlns="http://www.w3.org/2000/svg" xmlns:xlink="http://www.w3.org/1999/xlink" width="48" height="48" viewBox="0 0 48 48">
  <defs>
    <rect id="navigation-a" width="48" height="48" rx="1"/>
  </defs>
  <g fill="none" fill-rule="evenodd">
    <mask id="navigation-b" fill="#fff">
      <use xlink:href="#navigation-a"/>
    </mask>
    <path stroke="#383B3D" stroke-linecap="round" stroke-linejoin="round" d="M6,15.5 L42,15.5 M9,6 L39,6 C40.6568542,6 42,7.34314575 42,9 L42,39 C42,40.6568542 40.6568542,42 39,42 L9,42 C7.34314575,42 6,40.6568542 6,39 L6,9 C6,7.34314575 7.34314575,6 9,6 Z M11,13 C12.1045695,13 13,12.1045695 13,11 C13,9.8954305 12.1045695,9 11,9 C9.8954305,9 9,9.8954305 9,11 C9,12.1045695 9.8954305,13 11,13 Z M18,13 C19.1045695,13 20,12.1045695 20,11 C20,9.8954305 19.1045695,9 18,9 C16.8954305,9 16,9.8954305 16,11 C16,12.1045695 16.8954305,13 18,13 Z M24,9 L38,9 C38.5522847,9 39,9.44771525 39,10 L39,12 C39,12.5522847 38.5522847,13 38,13 L24,13 C23.4477153,13 23,12.5522847 23,12 L23,10 C23,9.44771525 23.4477153,9 24,9 Z" mask="url(#navigation-b)"/>
  </g>
</svg>
