<svg xmlns="http://www.w3.org/2000/svg" xmlns:xlink="http://www.w3.org/1999/xlink" width="48" height="48" viewBox="0 0 48 48">
  <defs>
    <rect id="pages-a" width="48" height="48" rx="1"/>
  </defs>
  <g fill="none" fill-rule="evenodd">
    <mask id="pages-b" fill="#fff">
      <use xlink:href="#pages-a"/>
    </mask>
    <path stroke="#383B3D" stroke-linecap="round" stroke-linejoin="round" d="M10.4007349,14.6129678 L19.0723272,6.20004931 C19.2589187,6.01902389 19.5086738,5.91778001 19.768648,5.91778001 L31.6804424,5.91778001 C32.2327272,5.91778001 32.6804424,6.36549526 32.6804424,6.91778001 L32.6804424,36.4611205 C32.6804424,37.0134053 32.2327272,37.4611205 31.6804424,37.4611205 L11.0970557,37.4611205 C10.544771,37.4611205 10.0970557,37.0134053 10.0970557,36.4611205 L10.0970557,15.3306986 C10.0970557,15.0602319 10.2066127,14.8012994 10.4007349,14.6129678 Z" mask="url(#pages-b)"/>
    <polygon stroke="#383B3D" stroke-linecap="round" stroke-linejoin="round" points="10.255 15.032 19.494 15.032 19.494 5.965" mask="url(#pages-b)"/>
    <path stroke="#383B3D" stroke-linecap="round" stroke-linejoin="round" d="M32.6842041 10.9441458L36.5940817 10.9441458C37.1463665 10.9441458 37.5940817 11.391861 37.5940817 11.9441458L37.5940817 41.4699854C37.5940817 42.0222701 37.1463665 42.4699854 36.5940817 42.4699854L16.4224812 42.4699854C15.8701965 42.4699854 15.4224812 42.0222701 15.4224812 41.4699854L15.4224812 37.5620081 32.6842041 37.5620081 32.6842041 10.9441458zM24 13.5L28.5 13.5M14.8740334 19.5L28.5 19.5M14.8740334 25.5L28.5 25.5M14.8740334 31.5L28.5 31.5" mask="url(#pages-b)"/>
  </g>
</svg>
