<svg xmlns="http://www.w3.org/2000/svg" xmlns:xlink="http://www.w3.org/1999/xlink" width="48" height="48" viewBox="0 0 48 48">
  <defs>
    <rect id="support-a" width="48" height="48" rx="1"/>
  </defs>
  <g fill="none" fill-rule="evenodd">
    <mask id="support-b" fill="#fff">
      <use xlink:href="#support-a"/>
    </mask>
    <path stroke="#383B3D" stroke-linecap="round" stroke-linejoin="round" d="M25,42 C26.1045695,42 27,41.1045695 27,40 C27,38.8954305 26.1045695,38 25,38 C23.8954305,38 23,38.8954305 23,40 C23,41.1045695 23.8954305,42 25,42 Z M23.031808,40.0957031 C23.031808,40.0957031 20.4955357,40.3120815 19.300851,39.8928571 C18.1061663,39.4736328 16.7429739,39.0773645 15.3694196,37.5605469 C14.4537168,36.5493351 13.1853017,34.5763068 11.5641741,31.6414621 C10.3803943,31.6414621 9.41601563,31.5114397 8.67103795,31.2513951 C7.83106676,30.9144459 7.06003747,30.0516173 6.68666295,29.6545759 C5.58990574,28.4882992 5.62340341,26.3939732 5.7280971,25.226144 C5.83279079,24.0583147 6.46267132,22.7558753 7.46582031,21.9199219 C8.13458631,21.3626196 9.39844419,20.8449949 11.257394,20.367048 C11.5439237,17.9812022 11.8124784,16.3790351 12.063058,15.5605469 C12.7645245,13.2692908 13.8921745,11.7243614 14.5062256,11.0432129 C15.1097249,10.3737691 15.5423584,10.0168457 16.2618408,9.42541504 C16.9813232,8.83398438 18.1868896,8.10733468 19.1326904,7.72572545 C20.0784912,7.34411621 22.1561279,6.62527902 24.5432478,6.62527902 C26.9303676,6.62527902 28.4251846,6.96223491 30.0982143,7.72572545 C31.7703509,8.48880843 33.2734375,9.47412109 34.5998535,11.2361886 C35.1109717,11.9151797 35.7650613,13.0964056 36.3708496,15.0241699 C36.6657005,15.9624565 37.1013288,17.7434159 37.6777344,20.367048 C39.9074238,20.9978312 41.363804,21.7086292 42.046875,22.499442 C43.0714815,23.6856611 43.5672356,24.9153247 43.4227121,26.8730469 C43.2781885,28.830769 42.5265476,29.7009671 41.4439174,30.6671317 C40.722164,31.3112414 39.4667696,31.7555309 37.6777344,32 L35.0438058,32 L35.0438058,20.367048 C36.4104353,20.367048 37.2884115,20.367048 37.6777344,20.367048 M11.6375558,31.5878906 L14.0348772,31.5878906 L14.0348772,21 L11.1989397,20.3 M17.2248884,13.6068638 C18.9038199,12.0815833 20.373593,11.1094851 21.6342076,10.6905692 C22.8948222,10.2716533 24.578416,10.1958534 26.6849888,10.4631696 M28.9741908,11.2361886 L30.2873884,12.1425781" mask="url(#support-b)"/>
  </g>
</svg>
