<svg xmlns="http://www.w3.org/2000/svg" xmlns:xlink="http://www.w3.org/1999/xlink" width="590" height="300" viewBox="0 0 590 300">
  <defs>
    <rect id="01_update-v4.0.0-a" width="590" height="300"/>
    <rect id="01_update-v4.0.0-c" width="40" height="40" rx="1"/>
    <rect id="01_update-v4.0.0-e" width="40" height="40" rx="1"/>
    <rect id="01_update-v4.0.0-g" width="40" height="40" rx="1"/>
    <path id="01_update-v4.0.0-j" d="M3,0 L370,0 C371.656854,-3.04359188e-16 373,1.34314575 373,3 L373,224 L0,224 L0,3 C-2.02906125e-16,1.34314575 1.34314575,3.04359188e-16 3,0 Z"/>
    <filter id="01_update-v4.0.0-i" width="135.7%" height="159.4%" x="-17.8%" y="-21.2%" filterUnits="objectBoundingBox">
      <feOffset dy="19" in="SourceAlpha" result="shadowOffsetOuter1"/>
      <feGaussianBlur in="shadowOffsetOuter1" result="shadowBlurOuter1" stdDeviation="19"/>
      <feColorMatrix in="shadowBlurOuter1" result="shadowMatrixOuter1" values="0 0 0 0 0   0 0 0 0 0   0 0 0 0 0  0 0 0 0.3 0"/>
      <feOffset dy="15" in="SourceAlpha" result="shadowOffsetOuter2"/>
      <feGaussianBlur in="shadowOffsetOuter2" result="shadowBlurOuter2" stdDeviation="6"/>
      <feColorMatrix in="shadowBlurOuter2" result="shadowMatrixOuter2" values="0 0 0 0 0   0 0 0 0 0   0 0 0 0 0  0 0 0 0.22 0"/>
      <feMerge>
        <feMergeNode in="shadowMatrixOuter1"/>
        <feMergeNode in="shadowMatrixOuter2"/>
      </feMerge>
    </filter>
    <path id="01_update-v4.0.0-k" d="M3,0 L370,0 C371.656854,-3.04359188e-16 373,1.34314575 373,3 L373,206 L0,206 L0,3 C-2.02906125e-16,1.34314575 1.34314575,3.04359188e-16 3,0 Z"/>
    <rect id="01_update-v4.0.0-m" width="48" height="48" rx="1"/>
    <path id="01_update-v4.0.0-o" d="M2.248384,11.6596904 C2.16610196,11.7078568 2.09899681,11.7801998 2.05530153,11.8678438 C1.93134583,12.1164739 2.02277821,12.4235599 2.25952146,12.5537394 L15.2317878,19.6868832 C15.3729801,19.7645216 15.5415215,19.7641617 15.6824122,19.6859211 L26.3424666,13.7660843 C26.5515556,13.6499711 26.7844939,13.589274 27.0210148,13.589274 C27.8227077,13.589274 28.4726082,14.2718062 28.4726082,15.1137522 L28.4726082,22.4920654 C28.4726082,22.7727141 28.6892417,23.0002248 28.9564726,23.0002248 L29.5161355,23.0002248 C29.7833665,23.0002248 30,22.7727141 30,22.4920654 L30,12.7288658 C30,12.5444947 29.9049107,12.3745872 29.7515292,12.2848931 L15.6940892,4.06441149 C15.5476733,3.97879067 15.3694966,3.97883171 15.2231164,4.06451998 L2.248384,11.6596904 Z M1.74675365,10.7759708 L14.7493745,3.19258619 C15.1894589,2.93592028 15.7251379,2.93579734 16.1653299,3.19226123 L30.2529855,11.3999866 C30.714119,11.6686514 31,12.177583 31,12.729838 L31,22.4778874 C31,23.318527 30.3487026,24 29.5452865,24 L28.9844207,24 C28.1810046,24 27.5297072,23.318527 27.5297072,22.4778874 L27.5297072,15.1110236 C27.5297072,14.8308104 27.3126081,14.6036527 27.0448027,14.6036527 C26.9657929,14.6036527 26.8879799,14.6238537 26.8181338,14.662498 L16.1351662,20.5731487 C15.7115858,20.8075064 15.2048749,20.8085842 14.7803873,20.5760306 L1.78023787,13.4539557 C1.0684815,13.0640231 0.793594775,12.1441948 1.16626118,11.3994617 C1.29762879,11.1369379 1.49937697,10.9202457 1.74675365,10.7759708 Z M6,19.4941038 L6,22.6757884 C6,22.8554924 6.09293002,23.0210222 6.24266544,23.1080316 L14.5550134,27.9382326 C14.6937984,28.0188788 14.8619403,28.0206565 15.0022435,27.9429609 L23.7490006,23.0992751 C23.903379,23.0137851 24,22.8455751 24,22.6623036 L24,19.4941038 C24,19.2212693 23.7893735,19.0000933 23.5295525,19.0000933 C23.4507787,19.0000933 23.3732658,19.0208646 23.3041246,19.0605019 L15.6762839,23.4333903 C15.2547889,23.6750249 14.7452111,23.6750249 14.3237161,23.4333903 L6.69587542,19.0605019 C6.46782591,18.9297657 6.18202773,19.0179133 6.05752731,19.257385 C6.01978062,19.3299893 6,19.4113844 6,19.4941038 Z M5,19.4855217 C5,19.2368261 5.05969468,18.9921117 5.17360804,18.7738272 C5.54933001,18.0538561 6.41182232,17.7888408 7.10003855,18.1818989 L14.7732317,22.5642576 C14.9145654,22.6449769 15.0854346,22.6449769 15.2267683,22.5642576 L22.8999615,18.1818989 C23.1086185,18.0627295 23.3425395,18.0002804 23.5802663,18.0002804 C24.3643636,18.0002804 25,18.6652456 25,19.4855217 L25,22.6605829 C25,23.2115879 24.7084137,23.7173109 24.2425248,23.9743364 L15.4437625,28.8285121 C15.0203504,29.0621037 14.5129255,29.0567592 14.094095,28.8142965 L5.73232472,23.9736347 C5.28044765,23.7120413 5,23.2143764 5,22.6740969 L5,19.4855217 Z"/>
  </defs>
  <g fill="none" fill-rule="evenodd">
    <mask id="01_update-v4.0.0-b" fill="#fff">
      <use xlink:href="#01_update-v4.0.0-a"/>
    </mask>
    <use fill="#39444D" fill-rule="nonzero" xlink:href="#01_update-v4.0.0-a"/>
    <g mask="url(#01_update-v4.0.0-b)">
      <g transform="translate(10 154)">
        <g opacity=".5">
          <mask id="01_update-v4.0.0-d" fill="#fff">
            <use xlink:href="#01_update-v4.0.0-c"/>
          </mask>
          <path stroke="#FFF" stroke-linecap="round" stroke-linejoin="round" d="M8,7.96918214 L32,7.96918214 C33.6568542,7.96918214 35,9.31232789 35,10.9691821 L35,13.159591 L22.6614027,13.159591 L5,13.159591 L5,10.9691821 C5,9.31232789 6.34314575,7.96918214 8,7.96918214 Z M5,13.2282125 L5,29.5 C5,31.1568542 6.34314575,32.5 8,32.5 L31.7455569,32.5 C33.3842248,32.5 34.7197174,31.1851118 34.7451943,29.546642 L35,13.159591" mask="url(#01_update-v4.0.0-d)"/>
          <path stroke="#FFF" stroke-linecap="round" stroke-linejoin="round" stroke-width=".5" d="M7.92050381,11.2402524 C7.45814732,11.2402524 7.08333333,10.8693384 7.08333333,10.4117929 C7.08333333,9.9542473 7.45814732,9.58333333 7.92050381,9.58333333 C8.38286029,9.58333333 8.75767428,9.9542473 8.75767428,10.4117929 C8.75767428,10.8693384 8.38286029,11.2402524 7.92050381,11.2402524 Z M10.4320152,11.2402524 C9.96965875,11.2402524 9.59484476,10.8693384 9.59484476,10.4117929 C9.59484476,9.9542473 9.96965875,9.58333333 10.4320152,9.58333333 C10.8943717,9.58333333 11.2691857,9.9542473 11.2691857,10.4117929 C11.2691857,10.8693384 10.8943717,11.2402524 10.4320152,11.2402524 Z M12.9435267,11.2402524 C12.4811702,11.2402524 12.1063562,10.8693384 12.1063562,10.4117929 C12.1063562,9.9542473 12.4811702,9.58333333 12.9435267,9.58333333 C13.4058831,9.58333333 13.7806971,9.9542473 13.7806971,10.4117929 C13.7806971,10.8693384 13.4058831,11.2402524 12.9435267,11.2402524 Z" mask="url(#01_update-v4.0.0-d)"/>
          <path stroke="#FFF" stroke-linecap="round" stroke-linejoin="round" d="M15.711263,17.7738444 L11.5820312,22.1415202 L15.711263,26.7020671 M22.2216797,17.175293 L17.8670247,27.8190104 M24.3631999,17.8641764 L28.4615072,22.3079427 L24.3631999,26.5458171" mask="url(#01_update-v4.0.0-d)"/>
        </g>
        <g fill="#FFF" font-family="Roboto-Medium, Roboto" font-size="11.31" font-weight="400" transform="translate(48 4)">
          <text>
            <tspan x="0" y="10">100+ Commits</tspan>
          </text>
          <text fill-opacity=".5">
            <tspan x="0" y="26">Update Code Changes</tspan>
          </text>
        </g>
        <g transform="translate(0 96)">
          <g opacity=".5">
            <mask id="01_update-v4.0.0-f" fill="#fff">
              <use xlink:href="#01_update-v4.0.0-e"/>
            </mask>
            <path stroke="#FFF" stroke-linecap="round" stroke-linejoin="round" d="M4.20654297,13.3605957 L4.20654297,31.2687174 L35.8492025,31.2687174 L35.8492025,13.3605957 L4.20654297,13.3605957 Z M30.2264404,29.31132 C30.5977022,28.1269385 30.9872421,27.3338884 31.3950602,26.9321696 C31.8028783,26.5304508 32.6013538,26.1532536 33.7904867,25.8005778 L33.7904867,18.6885579 C32.6048272,18.464316 31.8063517,18.1696518 31.3950602,17.8045654 C30.9837687,17.4394791 30.5942288,16.6795914 30.2264404,15.5249023 L9.58821615,15.5249023 C9.36383721,16.6746169 9.06754544,17.4345046 8.69934082,17.8045654 C8.33113621,18.1746263 7.57816583,18.4692905 6.44042969,18.6885579 L6.44042969,25.8005778 C7.58801354,26.1552951 8.34098392,26.5324923 8.69934082,26.9321696 C9.05769772,27.3318469 9.35398949,28.124897 9.58821615,29.31132 L30.2264404,29.31132 Z M20,27.5 C22.7614237,27.5 25,25.2614237 25,22.5 C25,19.7385763 22.7614237,17.5 20,17.5 C17.2385763,17.5 15,19.7385763 15,22.5 C15,25.2614237 17.2385763,27.5 20,27.5 Z" mask="url(#01_update-v4.0.0-f)"/>
            <circle cx="20" cy="22.5" r="3.333" stroke="#FFF" stroke-linecap="round" stroke-linejoin="round" stroke-width=".5" mask="url(#01_update-v4.0.0-f)"/>
            <polygon fill="#FFF" fill-rule="nonzero" points="6.181 11.814 19.105 11.814 31.581 9.683 31.879 11.814 34.287 11.814 33.584 7.087" mask="url(#01_update-v4.0.0-f)"/>
          </g>
          <g fill="#FFF" font-family="Roboto-Medium, Roboto" font-size="11.31" font-weight="400" transform="translate(48 4)">
            <text fill-opacity=".5">
              <tspan x="0" y="26">Update Development Cost</tspan>
            </text>
            <text>
              <tspan x="0" y="10">$3,700+ USD</tspan>
            </text>
          </g>
        </g>
        <g transform="translate(0 48)">
          <g opacity=".5">
            <mask id="01_update-v4.0.0-h" fill="#fff">
              <use xlink:href="#01_update-v4.0.0-g"/>
            </mask>
            <path stroke="#FFF" stroke-linecap="round" stroke-linejoin="round" d="M20,32.5 C26.9035594,32.5 32.5,26.9035594 32.5,20 C32.5,13.0964406 26.9035594,7.5 20,7.5 C13.0964406,7.5 7.5,13.0964406 7.5,20 C7.5,26.9035594 13.0964406,32.5 20,32.5 Z M19.3232408,13.8163815 L19.3232408,20.7327889 L25.8501098,24.7384014" mask="url(#01_update-v4.0.0-h)"/>
          </g>
          <g fill="#FFF" font-family="Roboto-Medium, Roboto" font-size="11.31" font-weight="400" transform="translate(48 4)">
            <text fill-opacity=".5">
              <tspan x="0" y="26">Update Development Time</tspan>
            </text>
            <text>
              <tspan x="0" y="10">54+ Hours</tspan>
            </text>
          </g>
        </g>
      </g>
    </g>
    <g mask="url(#01_update-v4.0.0-b)">
      <g transform="translate(217 94)">
        <use fill="#000" filter="url(#01_update-v4.0.0-i)" xlink:href="#01_update-v4.0.0-j"/>
        <use fill="#FFF" xlink:href="#01_update-v4.0.0-j"/>
        <mask id="01_update-v4.0.0-l" fill="#fff">
          <use xlink:href="#01_update-v4.0.0-k"/>
        </mask>
        <use fill="#CFDBE6" xlink:href="#01_update-v4.0.0-k"/>
        <text font-family="Roboto-Medium, Roboto" font-size="14" font-weight="400" mask="url(#01_update-v4.0.0-l)">
          <tspan x="66.943" y="84" fill="#383B3D">LearnPlus Bootstrap v4.0.0 — which is </tspan> <tspan x="70.033" y="108" fill="#383B3D">proudly offered for free to all existing </tspan> <tspan x="50.687" y="132" fill="#383B3D">customers — adds over 54 hours of custom </tspan> <tspan x="60.726" y="156" fill="#383B3D">frontend theme development worth over </tspan> <tspan x="149.965" y="180" fill="#383B3D">$3,700 USD</tspan>
        </text>
        <g mask="url(#01_update-v4.0.0-l)">
          <g transform="translate(163 15)">
            <mask id="01_update-v4.0.0-n" fill="#fff">
              <use xlink:href="#01_update-v4.0.0-m"/>
            </mask>
            <path stroke="#383B3D" stroke-linecap="round" stroke-linejoin="round" d="M6,13 L28.0239583,13 L42,13 L42,22.0320164 L28,22.0320164 L28.0239583,13 L6,13 Z M20,13.0712573 L20,21.7801115 L6,21.7801115 L6,13.0712573 M7.99296875,21.8074434 L7.99296875,43 L40.0528646,43 L40.0528646,22.0395102 M20,21.815611 L20,42.3420907 M28,21.9821593 L28,42.3420907 M15.0986979,11.0846354 C11.3400848,9.4010183 13.0434896,6.61041667 13.0434896,6.61041667 C13.0434896,6.61041667 13.8182292,5 16.225,5 C16.7084152,5 19.5364583,5.47604167 21.95625,8.28868102 C22.6432179,9.08717659 23.3244679,10.1636926 24,11.5182292 C19.0531729,11.6714469 16.0860722,11.5269156 15.0986979,11.0846354 Z M32.5597303,11.0846354 C36.3183434,9.4010183 34.6149386,6.61041667 34.6149386,6.61041667 C34.6149386,6.61041667 33.840199,5 31.4334282,5 C30.950013,5 28.1219699,5.47604167 25.7021782,8.28868102 C25.0152103,9.08717659 24.3339603,10.1636926 23.6584282,11.5182292 C28.6052553,11.6714469 31.572356,11.5269156 32.5597303,11.0846354 Z" mask="url(#01_update-v4.0.0-n)"/>
          </g>
        </g>
      </g>
    </g>
    <g transform="translate(44 37)">
      <text fill="#FFF" font-family="Roboto-Medium, Roboto" font-size="14" font-weight="400">
        <tspan x="0" y="47">LearnPlus Bootstrap</tspan>
      </text>
      <use fill="#FFF" transform="translate(48)" xlink:href="#01_update-v4.0.0-o"/>
    </g>
    <rect width="80" height="20" x="69" y="97" fill="#2196F3" fill-rule="nonzero" rx="2"/>
    <path fill="#FFF" d="M96.1961738,109.299082 L97.4608174,105.024697 L98.8469552,105.024697 L96.7760323,111 L95.610793,111 L93.5233026,105.024697 L94.9149629,105.024697 L96.1961738,109.299082 Z M104.137473,108.133843 L105.137038,108.133843 L105.137038,109.210723 L104.137473,109.210723 L104.137473,111 L102.795515,111 L102.795515,109.210723 L99.3218868,109.210723 L99.2832296,108.393398 L102.751335,102.959297 L104.137473,102.959297 L104.137473,108.133843 Z M100.691457,108.133843 L102.795515,108.133843 L102.795515,104.776186 L102.696111,104.952905 L100.691457,108.133843 Z M106.948406,109.58625 C107.198759,109.58625 107.392043,109.657121 107.528264,109.798865 C107.664485,109.940609 107.732595,110.118246 107.732595,110.331782 C107.732595,110.541637 107.664485,110.715593 107.528264,110.853655 C107.392043,110.991717 107.198759,111.060747 106.948406,111.060747 C106.709098,111.060747 106.519495,110.992637 106.379592,110.856416 C106.239689,110.720195 106.169739,110.545318 106.169739,110.331782 C106.169739,110.118246 106.237848,109.940609 106.37407,109.798865 C106.510291,109.657121 106.701735,109.58625 106.948406,109.58625 Z M114.425818,107.614731 C114.425818,108.770772 114.209524,109.642392 113.776929,110.229617 C113.344334,110.816841 112.686247,111.110449 111.802649,111.110449 C110.933777,111.110449 110.279372,110.824205 109.839414,110.251707 C109.399456,109.679209 109.173958,108.831519 109.162913,107.708613 L109.162913,106.316953 C109.162913,105.160912 109.379207,104.293894 109.811802,103.715874 C110.244397,103.137853 110.904324,102.848847 111.791604,102.848847 C112.671521,102.848847 113.327767,103.13049 113.760362,103.693784 C114.192956,104.257078 114.414773,105.100165 114.425818,106.223071 L114.425818,107.614731 Z M113.08386,106.112622 C113.08386,105.357882 112.980775,104.804721 112.774602,104.453122 C112.568429,104.101524 112.240767,103.925727 111.791604,103.925727 C111.353487,103.925727 111.031346,104.09232 110.825173,104.42551 C110.619,104.7587 110.510393,105.278727 110.499348,105.985605 L110.499348,107.808017 C110.499348,108.559076 110.604274,109.11868 110.814128,109.486846 C111.023983,109.855012 111.353487,110.039092 111.802649,110.039092 C112.233403,110.039092 112.551862,109.868818 112.758035,109.528264 C112.964208,109.187711 113.072815,108.654798 113.08386,107.929512 L113.08386,106.112622 Z M116.535398,109.58625 C116.785751,109.58625 116.979035,109.657121 117.115257,109.798865 C117.251478,109.940609 117.319588,110.118246 117.319588,110.331782 C117.319588,110.541637 117.251478,110.715593 117.115257,110.853655 C116.979035,110.991717 116.785751,111.060747 116.535398,111.060747 C116.29609,111.060747 116.106488,110.992637 115.966585,110.856416 C115.826682,110.720195 115.756731,110.545318 115.756731,110.331782 C115.756731,110.118246 115.824841,109.940609 115.961062,109.798865 C116.097284,109.657121 116.288727,109.58625 116.535398,109.58625 Z M124.012811,107.614731 C124.012811,108.770772 123.796516,109.642392 123.363921,110.229617 C122.931326,110.816841 122.27324,111.110449 121.389642,111.110449 C120.52077,111.110449 119.866365,110.824205 119.426407,110.251707 C118.986448,109.679209 118.76095,108.831519 118.749905,107.708613 L118.749905,106.316953 C118.749905,105.160912 118.966199,104.293894 119.398794,103.715874 C119.831389,103.137853 120.491317,102.848847 121.378597,102.848847 C122.258513,102.848847 122.914759,103.13049 123.347354,103.693784 C123.779949,104.257078 124.001766,105.100165 124.012811,106.223071 L124.012811,107.614731 Z M122.670853,106.112622 C122.670853,105.357882 122.567768,104.804721 122.361595,104.453122 C122.155422,104.101524 121.827759,103.925727 121.378597,103.925727 C120.940479,103.925727 120.618339,104.09232 120.412166,104.42551 C120.205993,104.7587 120.097386,105.278727 120.086341,105.985605 L120.086341,107.808017 C120.086341,108.559076 120.191266,109.11868 120.401121,109.486846 C120.610976,109.855012 120.940479,110.039092 121.389642,110.039092 C121.820396,110.039092 122.138854,109.868818 122.345027,109.528264 C122.5512,109.187711 122.659808,108.654798 122.670853,107.929512 L122.670853,106.112622 Z"/>
  </g>
</svg>
